<svg aria-hidden="true" style="width:0;height:0;position:absolute;overflow:hidden" xmlns="http://www.w3.org/2000/svg"><defs><symbol id="icon-star" viewBox="0 0 32 32"><path d="M24.626 30.001a.999.999 0 0 1-.587-.188l-8.038-5.827-8.038 5.827a1.004 1.004 0 0 1-1.18-.004 1.003 1.003 0 0 1-.354-1.126l3.135-9.286-8.125-5.572A.999.999 0 0 1 2.002 12h10.024l3.025-9.309A.996.996 0 0 1 16.002 2a1.002 1.002 0 0 1 .951.691l3.025 9.313h10.024a1 1 0 0 1 .566 1.825l-8.128 5.569 3.133 9.283a1 1 0 0 1-.945 1.32z"/></symbol></defs></svg>